#define battery_32_img_width 18
#define battery_32_img_height 18
static unsigned char battery_32_img_bits[] = {
   0xff, 0xff, 0x03, 0xff, 0xff, 0x03, 0xff, 0xff, 0x03, 0xff, 0xff, 0x03,
   0xff, 0xff, 0x03, 0xff, 0xff, 0x03, 0xff, 0xff, 0x03, 0xff, 0xff, 0x03,
   0xff, 0xff, 0x03, 0xff, 0xff, 0x03, 0x03, 0x00, 0x02, 0xfb, 0xff, 0x02,
   0xf9, 0xaf, 0x02, 0xf9, 0xaf, 0x02, 0xf9, 0xaf, 0x02, 0xfb, 0xff, 0x02,
   0x03, 0x00, 0x02, 0xff, 0xff, 0x03 };
