#define cpu_img_width 18
#define cpu_img_height 18
static unsigned char cpu_img_bits[] = {
   0xff, 0xff, 0x03, 0xaf, 0xea, 0x03, 0xaf, 0xea, 0x03, 0x07, 0x80, 0x03,
   0xf7, 0x3f, 0x02, 0x31, 0xaf, 0x03, 0xd7, 0x36, 0x02, 0xd1, 0xba, 0x03,
   0x37, 0x3d, 0x02, 0xf1, 0xb2, 0x03, 0x77, 0x2d, 0x02, 0xb1, 0xad, 0x03,
   0xd7, 0x33, 0x02, 0xf1, 0xbf, 0x03, 0x07, 0x80, 0x03, 0x5f, 0xd5, 0x03,
   0x5f, 0xd5, 0x03, 0xff, 0xff, 0x03 };
