#define keyboard_caps_img_width 18
#define keyboard_caps_img_height 18
static unsigned char keyboard_caps_img_bits[] = {
   0x00, 0xfc, 0x03, 0x00, 0xfc, 0x03, 0x00, 0xfc, 0x03, 0x00, 0xfc, 0x03,
   0x00, 0xfc, 0x03, 0xfc, 0xfc, 0x03, 0xfc, 0xfc, 0x03, 0x0c, 0xfc, 0x03,
   0x0c, 0xfc, 0x03, 0x0c, 0xfc, 0x03, 0x0c, 0xfc, 0x03, 0x0c, 0xfc, 0x03,
   0x0c, 0x6c, 0x03, 0x0c, 0x4c, 0x03, 0x0c, 0x2c, 0x03, 0xfc, 0x2c, 0x03,
   0xfc, 0x6c, 0x03, 0x00, 0xfc, 0x03 };
