#define keyboard_num_img_width 18
#define keyboard_num_img_height 18
static unsigned char keyboard_num_img_bits[] = {
   0xff, 0x00, 0x00, 0xff, 0x00, 0x00, 0xff, 0x00, 0x00, 0xff, 0x00, 0x00,
   0xff, 0x00, 0x00, 0xff, 0x00, 0x00, 0xff, 0x00, 0x00, 0xff, 0x00, 0x00,
   0xff, 0x00, 0x00, 0xff, 0x00, 0x00, 0xff, 0x00, 0x00, 0xff, 0x00, 0x00,
   0xc3, 0x90, 0x00, 0xfb, 0xb0, 0x00, 0xfb, 0xd0, 0x00, 0xfb, 0xd0, 0x00,
   0xc3, 0x90, 0x00, 0xff, 0x00, 0x00 };
