#define layout_free_width 22
#define layout_free_height 18
static unsigned char layout_free_bits[] = {
   0x00, 0x00, 0x00, 0xfe, 0xff, 0x1f, 0xfe, 0xff, 0x1f, 0x06, 0xf8, 0x1f,
   0xf6, 0xfb, 0x1f, 0xf6, 0xfb, 0x1f, 0xf6, 0x03, 0x18, 0xf6, 0xfb, 0x1b,
   0xf6, 0xfb, 0x1b, 0x06, 0xf8, 0x1b, 0x7e, 0xff, 0x1b, 0x7e, 0xff, 0x1b,
   0x42, 0xff, 0x1b, 0x5a, 0xff, 0x1b, 0x5a, 0x00, 0x18, 0xc2, 0xff, 0x1f,
   0xfe, 0xff, 0x1f, 0x00, 0x00, 0x00 };
