#define layout_dwindle_width 22
#define layout_dwindle_height 18
static unsigned char layout_dwindle_bits[] = {
   0x00, 0x00, 0x00, 0xfe, 0xfb, 0x1f, 0xfe, 0xfb, 0x1f, 0xfe, 0xfb, 0x1f,
   0xfe, 0xfb, 0x1f, 0xfe, 0xfb, 0x1f, 0xfe, 0xfb, 0x1f, 0xfe, 0xfb, 0x1f,
   0xfe, 0x03, 0x00, 0xfe, 0xfb, 0x1e, 0xfe, 0xfb, 0x1e, 0xfe, 0xfb, 0x1e,
   0xfe, 0xfb, 0x00, 0xfe, 0xfb, 0x1a, 0xfe, 0xfb, 0x02, 0xfe, 0xfb, 0x1a,
   0xfe, 0xfb, 0x1a, 0x00, 0x00, 0x00 };
