#define layout_grid_width 22
#define layout_grid_height 18
static unsigned char layout_grid_bits[] = {
   0x00, 0x00, 0x00, 0xbe, 0xbf, 0x1f, 0xbe, 0xbf, 0x1f, 0xbe, 0xbf, 0x1f,
   0xbe, 0xbf, 0x1f, 0xbe, 0xbf, 0x1f, 0x00, 0x00, 0x00, 0xbe, 0xbf, 0x1f,
   0xbe, 0xbf, 0x1f, 0xbe, 0xbf, 0x1f, 0xbe, 0xbf, 0x1f, 0xbe, 0xbf, 0x1f,
   0x00, 0x00, 0x00, 0xbe, 0xbf, 0x1f, 0xbe, 0xbf, 0x1f, 0xbe, 0xbf, 0x1f,
   0xbe, 0xbf, 0x1f, 0x00, 0x00, 0x00 };
