#define battery_charging_img_width 18
#define battery_charging_img_height 9
static unsigned char battery_charging_img_bits[] = {
   0xff, 0xff, 0x03, 0xbf, 0xff, 0x03, 0x3f, 0xff, 0x03, 0x0f, 0xfe, 0x03,
   0x3f, 0x00, 0x00, 0x0f, 0xfe, 0x03, 0x3f, 0xff, 0x03, 0xbf, 0xff, 0x03,
   0xff, 0xff, 0x03 };
