#define battery_notcharging_img_width 18
#define battery_notcharging_img_height 9
static unsigned char battery_notcharging_img_bits[] = {
   0xff, 0xff, 0x03, 0xc3, 0xff, 0x03, 0xef, 0xff, 0x03, 0x77, 0xf8, 0x03,
   0xc3, 0xfd, 0x03, 0xff, 0x0e, 0x03, 0x7f, 0xb8, 0x03, 0xff, 0xdf, 0x03,
   0xff, 0x0f, 0x03 };
