#define keyboard_all_img_width 18
#define keyboard_all_img_height 18
static unsigned char keyboard_all_img_bits[] = {
   0x00, 0x00, 0x00, 0x00, 0x00, 0x00, 0x00, 0x00, 0x00, 0x00, 0x00, 0x00,
   0x00, 0x00, 0x00, 0xfc, 0x00, 0x00, 0xfc, 0x00, 0x00, 0x0c, 0x00, 0x00,
   0x0c, 0x00, 0x00, 0x0c, 0x00, 0x00, 0x0c, 0x00, 0x00, 0x0c, 0x00, 0x00,
   0x0c, 0x90, 0x00, 0x0c, 0xb0, 0x00, 0x0c, 0xd0, 0x00, 0xfc, 0xd0, 0x00,
   0xfc, 0x90, 0x00, 0x00, 0x00, 0x00 };
