#define keyboard_img_width 18
#define keyboard_img_height 18
static unsigned char keyboard_img_bits[] = {
   0xff, 0xfc, 0x03, 0xff, 0xfc, 0x03, 0xff, 0xfc, 0x03, 0xff, 0xfc, 0x03,
   0xff, 0xfc, 0x03, 0xff, 0xfc, 0x03, 0xff, 0xfc, 0x03, 0xff, 0xfc, 0x03,
   0xff, 0xfc, 0x03, 0xff, 0xfc, 0x03, 0xff, 0xfc, 0x03, 0xff, 0xfc, 0x03,
   0xc3, 0x6c, 0x03, 0xfb, 0x4c, 0x03, 0xfb, 0x2c, 0x03, 0xfb, 0x2c, 0x03,
   0xc3, 0x6c, 0x03, 0xff, 0xfc, 0x03 };
