#define layout_tile_width 22
#define layout_tile_height 18
static unsigned char layout_tile_bits[] = {
   0x00, 0x00, 0x00, 0xfe, 0xfd, 0x1f, 0xfe, 0xfd, 0x1f, 0xfe, 0xfd, 0x1f,
   0xfe, 0xfd, 0x1f, 0xfe, 0x01, 0x00, 0xfe, 0xfd, 0x1f, 0xfe, 0xfd, 0x1f,
   0xfe, 0xfd, 0x1f, 0xfe, 0xfd, 0x1f, 0xfe, 0xfd, 0x1f, 0xfe, 0xfd, 0x1f,
   0xfe, 0x01, 0x00, 0xfe, 0xfd, 0x1f, 0xfe, 0xfd, 0x1f, 0xfe, 0xfd, 0x1f,
   0xfe, 0xfd, 0x1f, 0x00, 0x00, 0x00 };
