#define layout_spiral_width 22
#define layout_spiral_height 18
static unsigned char layout_spiral_bits[] = {
   0x00, 0x00, 0x00, 0xfe, 0xfb, 0x1f, 0xfe, 0xfb, 0x1f, 0xfe, 0xfb, 0x1f,
   0xfe, 0xfb, 0x1f, 0xfe, 0xfb, 0x1f, 0xfe, 0xfb, 0x1f, 0xfe, 0xfb, 0x1f,
   0xfe, 0x03, 0x00, 0xfe, 0xdb, 0x1e, 0xfe, 0xdb, 0x1e, 0xfe, 0x1b, 0x1e,
   0xfe, 0xdb, 0x1e, 0xfe, 0x03, 0x1e, 0xfe, 0xfb, 0x1e, 0xfe, 0xfb, 0x1e,
   0xfe, 0xfb, 0x1e, 0x00, 0x00, 0x00 };
