#define layout_monocle_width 22
#define layout_monocle_height 18
static unsigned char layout_monocle_bits[] = {
   0x00, 0x00, 0x00, 0x7e, 0xbf, 0x1f, 0x7e, 0xbf, 0x1f, 0x7e, 0xbf, 0x1f,
   0x7e, 0xbf, 0x1f, 0x7e, 0xbf, 0x1f, 0x6e, 0xbf, 0x1d, 0x76, 0xbf, 0x1b,
   0x42, 0xbf, 0x10, 0x76, 0xbf, 0x1b, 0x6e, 0xbf, 0x1d, 0x7e, 0xbf, 0x1f,
   0x7e, 0xbf, 0x1f, 0x7e, 0xbf, 0x1f, 0x7e, 0xbf, 0x1f, 0x7e, 0xbf, 0x1f,
   0x7e, 0xbf, 0x1f, 0x00, 0x00, 0x00 };
