#define layout_cascade_width 22
#define layout_cascade_height 18
static unsigned char layout_cascade_bits[] = {
   0x00, 0x00, 0x00, 0xfe, 0xff, 0x1f, 0x02, 0x80, 0x1f, 0xfa, 0xbf, 0x1f,
   0x0a, 0x00, 0x1c, 0xea, 0xff, 0x1d, 0x2a, 0x00, 0x10, 0xaa, 0xff, 0x17,
   0xaa, 0xff, 0x17, 0xaa, 0xff, 0x17, 0xa2, 0xff, 0x17, 0xae, 0xff, 0x17,
   0x8e, 0xff, 0x17, 0xbe, 0xff, 0x17, 0xbe, 0xff, 0x17, 0x3e, 0x00, 0x10,
   0xfe, 0xff, 0x1f, 0x00, 0x00, 0x00 };
